HIERARCHY
ROOT Hips
{
	OFFSET 0.00000 0.00000 0.00000
	CHANNELS 6 Xposition Yposition Zposition Zrotation Yrotation Xrotation 
	JOINT LHipJoint
	{
		OFFSET 0 0 0
		CHANNELS 3 Zrotation Yrotation Xrotation
		JOINT LeftHip
		{
			OFFSET 1.34019 -1.87553 0.90315
			CHANNELS 3 Zrotation Yrotation Xrotation
			JOINT LeftKnee
			{
				OFFSET 2.55316 -7.01474 0.00000
				CHANNELS 3 Zrotation Yrotation Xrotation
				JOINT LeftAnkle
				{
					OFFSET 2.64657 -7.27139 0.00000
					CHANNELS 3 Zrotation Yrotation Xrotation
					JOINT LeftToe
					{
						OFFSET 0.24207 -0.66507 2.14489
						CHANNELS 3 Zrotation Yrotation Xrotation
						End Site
						{
							OFFSET 0.00000 -0.00000 1.12451
						}
					}
				}
			}
		}
	}
	JOINT RHipJoint
	{
		OFFSET 0 0 0
		CHANNELS 3 Zrotation Yrotation Xrotation
		JOINT RightHip
		{
			OFFSET -1.28320 -1.87553 0.90315
			CHANNELS 3 Zrotation Yrotation Xrotation
			JOINT RightKnee
			{
				OFFSET -2.60484 -7.15674 0.00000
				CHANNELS 3 Zrotation Yrotation Xrotation
				JOINT RightAnkle
				{
					OFFSET -2.60296 -7.15159 0.00000
					CHANNELS 3 Zrotation Yrotation Xrotation
					JOINT RightToe
					{
						OFFSET -0.31082 -0.85398 2.28998
						CHANNELS 3 Zrotation Yrotation Xrotation
						End Site
						{
							OFFSET -0.00000 -0.00000 1.21611
						}
					}
				}
			}
		}
	}
	JOINT lowerback
	{
		OFFSET 0 0 0
		CHANNELS 3 Zrotation Yrotation Xrotation
		JOINT Chest
		{
			OFFSET -0.00160 2.05581 -0.15156
			CHANNELS 3 Zrotation Yrotation Xrotation
			JOINT Chest2
			{
				OFFSET 0.04594 2.06326 -0.01617
				CHANNELS 3 Zrotation Yrotation Xrotation
				JOINT lowerneck
				{
					OFFSET 0 0 0
					CHANNELS 3 Zrotation Yrotation Xrotation
					JOINT Neck
					{
						OFFSET 0.03753 1.73883 0.26751
						CHANNELS 3 Zrotation Yrotation Xrotation
						JOINT Head
						{
							OFFSET -0.09795 1.76129 -0.31794
							CHANNELS 3 Zrotation Yrotation Xrotation
							End Site
							{
								OFFSET -0.03611 1.79987 -0.13846
							}
						}
					}
				}
				JOINT LeftCollar
				{
					OFFSET 0 0 0
					CHANNELS 3 Zrotation Yrotation Xrotation
					JOINT LeftShoulder
					{
						OFFSET 3.30667 1.29205 -0.22445
CHANNELS 3 Zrotation Xrotation Yrotation
						JOINT LeftElbow
						{
OFFSET 0 -4.927850 -0.000000
CHANNELS 3 Zrotation Xrotation Yrotation
							JOINT LeftWrist
							{
OFFSET 0 -3.440520 0.000000
CHANNELS 3 Zrotation Xrotation Yrotation
								JOINT lhand
								{
									OFFSET 0 0 0
CHANNELS 3 Zrotation Xrotation Yrotation
									JOINT LFingers
									{
OFFSET 0 -0.654330 0.000000
CHANNELS 3 Zrotation Xrotation Yrotation
										End Site
										{
OFFSET 0 -0.527530 0.000000
										}
									}
								}
								JOINT LThumb
								{
OFFSET 0 0.000000 0.000000
CHANNELS 3 Zrotation Xrotation Yrotation
									End Site
									{
OFFSET 0 -0.535590 0.535590
									}
								}
							}
						}
					}
				}
				JOINT RightCollar
				{
					OFFSET 0 0 0
					CHANNELS 3 Zrotation Yrotation Xrotation
					JOINT RightShoulder
					{
						OFFSET -3.20032 1.49783 -0.27688
CHANNELS 3 Zrotation Xrotation Yrotation
						JOINT RightElbow
						{
OFFSET 0 -5.091810 -0.000000
CHANNELS 3 Zrotation Xrotation Yrotation
							JOINT RightWrist
							{
OFFSET 0 -3.498650 -0.000000
CHANNELS 3 Zrotation Xrotation Yrotation
								JOINT rhand
								{
									OFFSET 0 0 0
CHANNELS 3 Zrotation Xrotation Yrotation
									JOINT RFingers
									{
OFFSET 0 -0.666410 0.000000
CHANNELS 3 Zrotation Xrotation Yrotation
										End Site
										{
OFFSET 0 -0.537280 0.000000
										}
									}
								}
								JOINT RThumb
								{
OFFSET 0 0.000000 0.000000
CHANNELS 3 Zrotation Xrotation Yrotation
									End Site
									{
OFFSET 0 -0.545480 0.545480
									}
								}
							}
						}
					}
				}
			}
		}
	}
}
MOTION
Frames: 5
Frame Time: 0.008333333333333333
0.155227 18.150230 -3.761874 -0.968895 14.386890 3.294785 0.000000 0.000000 0.000000 -14.801115 -2.246837 -10.484786 10.418047 17.638250 60.876492 -0.116318 6.240702 -0.732382 0.487699 -4.476339 -12.421044 0.000000 0.000000 0.000000 22.376182 7.218396 -18.142338 -3.096660 -10.849764 31.774942 1.060731 -19.253074 -14.982551 -0.003874 0.401123 -1.102224 0.924262 -2.421345 8.176159 5.002803 -2.837503 -1.289817 5.102067 -1.339687 -5.733796 2.011024 -3.637322 -17.179187 -2.272128 -5.067248 19.711997 -1.737491 -2.470690 8.890865 0.000000 0.000000 0.000000 13.778707 13.574651 -50.178749 58.123527 -55.771131 32.788533 1.674399 -2.195288 4.520049 0.000000 0.000000 0.000000 -7.125000 0.000000 0.000000 -18.550060 25.379393 -9.289594 0.000000 0.000000 0.000000 -7.153372 9.522327 -6.582838 -15.609264 -24.983919 -3.481614 -9.540596 -6.416863 4.966159 0.000000 0.000000 0.000000 7.125000 0.000000 0.000000 14.111058 34.729194 3.650389
0.160511 18.160479 -3.597408 -1.116230 14.145693 3.162438 0.000000 0.000000 0.000000 -14.667798 -2.259557 -11.656577 10.481562 17.671869 61.085952 -0.115881 6.059825 -1.841239 0.529182 -4.660916 -12.944058 0.000000 0.000000 0.000000 22.815877 6.916120 -17.350306 -3.043999 -10.765804 31.494127 1.038095 -19.201935 -15.288213 -0.004705 0.443266 -1.218002 1.052585 -2.394924 8.145446 4.983959 -2.793701 -1.234459 4.999321 -1.323938 -5.668477 1.926149 -3.671315 -17.106210 -2.206824 -5.104899 19.703877 -1.704086 -2.487716 8.878369 0.000000 0.000000 0.000000 14.105782 13.297149 -50.206174 61.058559 -56.572164 35.226152 3.870776 -2.308553 4.009736 0.000000 0.000000 0.000000 -7.125000 0.000000 0.000000 -17.032935 25.880415 -8.245787 0.000000 0.000000 0.000000 -6.894928 9.916875 -5.802012 -14.817347 -23.888276 -3.153303 -9.199174 -5.561702 5.190756 0.000000 0.000000 0.000000 7.125000 0.000000 0.000000 14.428362 34.933023 3.663581
0.165822 18.166276 -3.434387 -1.290427 13.914473 3.030846 0.000000 0.000000 0.000000 -14.503564 -2.310073 -12.835214 10.528460 17.696503 61.240292 -0.110480 5.937016 -2.900409 0.561239 -4.798063 -13.333639 0.000000 0.000000 0.000000 23.281256 6.591083 -16.605046 -2.999719 -10.694479 31.256412 1.014277 -19.164122 -15.646133 -0.005246 0.468366 -1.286959 1.207748 -2.372451 8.111377 4.972017 -2.752711 -1.169474 4.888465 -1.310373 -5.591614 1.857352 -3.697624 -17.059972 -2.160444 -5.132485 19.690861 -1.679062 -2.500943 8.868196 0.000000 0.000000 0.000000 14.426184 12.981616 -50.167277 63.961671 -57.268959 37.657758 6.128829 -2.416031 3.645846 0.000000 0.000000 0.000000 -7.125000 0.000000 0.000000 -15.425629 26.239986 -7.269234 0.000000 0.000000 0.000000 -6.634732 10.301521 -4.975934 -14.090495 -22.862664 -2.864074 -8.807835 -4.526617 5.303406 0.000000 0.000000 0.000000 7.125000 0.000000 0.000000 14.766029 35.023789 3.720838
0.170986 18.167741 -3.272813 -1.483431 13.696810 2.903806 0.000000 0.000000 0.000000 -14.314221 -2.400152 -14.025664 10.559319 17.712614 61.341823 -0.100764 5.858715 -3.900720 0.584858 -4.896461 -13.613523 0.000000 0.000000 0.000000 23.765598 6.235527 -15.909873 -2.963521 -10.635716 31.060996 0.989521 -19.142733 -16.052489 -0.005498 0.480238 -1.319632 1.382835 -2.354906 8.085751 4.965530 -2.715855 -1.103018 4.773255 -1.299056 -5.518265 1.785274 -3.720981 -17.023931 -2.115117 -5.155005 19.667577 -1.653255 -2.512215 8.856648 0.000000 0.000000 0.000000 14.736635 12.643016 -50.060641 66.819260 -57.868175 40.068705 8.351568 -2.520169 3.417184 0.000000 0.000000 0.000000 -7.125000 0.000000 0.000000 -13.806203 26.465410 -6.381756 0.000000 0.000000 0.000000 -6.373493 10.695345 -4.086089 -13.439346 -21.927497 -2.615166 -8.354297 -3.360399 5.309437 0.000000 0.000000 0.000000 7.125000 0.000000 0.000000 15.133626 35.006709 3.825514
0.175896 18.164382 -3.113017 -1.703097 13.485241 2.778037 0.000000 0.000000 0.000000 -14.086113 -2.517825 -15.227626 10.571896 17.719161 61.383258 -0.087240 5.819433 -4.819182 0.599675 -4.957278 -13.786844 0.000000 0.000000 0.000000 24.281512 5.887335 -15.248979 -2.936041 -10.590749 30.911709 0.967813 -19.173314 -16.527743 -0.005412 0.476707 -1.309984 1.579759 -2.343794 8.077223 4.967253 -2.684584 -1.029538 4.656014 -1.290786 -5.447455 1.743667 -3.725633 -17.019968 -2.093150 -5.155263 19.671970 -1.639214 -2.513076 8.859405 0.000000 0.000000 0.000000 15.036759 12.276992 -49.862339 69.620563 -58.365568 42.448335 10.471044 -2.667475 3.341722 0.000000 0.000000 0.000000 -7.125000 0.000000 0.000000 -12.229689 26.534755 -5.599486 0.000000 0.000000 0.000000 -6.109377 11.087816 -3.105086 -12.885874 -21.118954 -2.412556 -7.838125 -2.116228 5.242762 0.000000 0.000000 0.000000 7.125000 0.000000 0.000000 15.536433 34.915483 3.969632
